<mxfile host="app.diagrams.net" modified="2023-05-12T18:48:38.493Z" agent="Mozilla/5.0 (Windows NT 10.0; Win64; x64) AppleWebKit/537.36 (KHTML, like Gecko) Chrome/113.0.0.0 Safari/537.36" version="21.2.9" etag="fjKnLMNNhHlmpAMwwCwZ" type="github">
  <diagram name="第 1 页" id="1ubg-ta9wFwqDNa4L0xC">
    <mxGraphModel>
      <root>
        <mxCell id="0" />
        <mxCell id="1" parent="0" />
      </root>
    </mxGraphModel>
  </diagram>
</mxfile>
